<?xml version="1.0" encoding="UTF-8"?>
<svg xmlns="http://www.w3.org/2000/svg" xmlns:xlink="http://www.w3.org/1999/xlink" viewBox="0 0 20 20" width="20px" height="20px">
<g id="surface27857799">
<path style=" stroke:none;fill-rule:nonzero;fill:rgb(100%,100%,100%);fill-opacity:1;" d="M 16.398438 1.601562 L 3.601562 1.601562 C 2.496094 1.601562 1.601562 2.496094 1.601562 3.601562 L 1.601562 16.398438 C 1.601562 17.503906 2.496094 18.398438 3.601562 18.398438 L 16.398438 18.398438 C 17.503906 18.398438 18.398438 17.503906 18.398438 16.398438 L 18.398438 3.601562 C 18.398438 2.496094 17.503906 1.601562 16.398438 1.601562 Z M 15.089844 13.199219 L 13.597656 13.195312 C 13.597656 13.195312 13.5625 13.199219 13.511719 13.199219 C 13.390625 13.199219 13.144531 13.167969 12.851562 12.96875 C 12.328125 12.605469 11.828125 11.699219 11.433594 11.699219 C 11.402344 11.699219 11.378906 11.703125 11.355469 11.710938 C 11.011719 11.820312 10.90625 12.164062 10.90625 12.585938 C 10.90625 12.730469 10.804688 12.800781 10.523438 12.800781 L 9.753906 12.800781 C 8.886719 12.800781 8.050781 12.78125 7.113281 11.753906 C 5.726562 10.234375 4.433594 7.539062 4.433594 7.539062 C 4.433594 7.539062 4.359375 7.382812 4.4375 7.292969 C 4.507812 7.207031 4.675781 7.199219 4.738281 7.199219 C 4.757812 7.199219 4.765625 7.199219 4.765625 7.199219 L 6.363281 7.199219 C 6.363281 7.199219 6.511719 7.226562 6.621094 7.308594 C 6.710938 7.375 6.761719 7.5 6.761719 7.5 C 6.761719 7.5 7.03125 8.027344 7.371094 8.625 C 7.945312 9.609375 8.253906 9.9375 8.472656 9.9375 C 8.507812 9.9375 8.542969 9.929688 8.578125 9.90625 C 8.90625 9.726562 8.8125 8.273438 8.8125 8.273438 C 8.8125 8.273438 8.816406 7.742188 8.644531 7.511719 C 8.511719 7.328125 8.261719 7.277344 8.148438 7.261719 C 8.058594 7.246094 8.203125 7.039062 8.394531 6.945312 C 8.644531 6.824219 9.054688 6.800781 9.550781 6.800781 L 9.792969 6.800781 C 10.261719 6.808594 10.273438 6.855469 10.457031 6.898438 C 11.007812 7.03125 10.820312 7.546875 10.820312 8.785156 C 10.820312 9.179688 10.746094 9.734375 11.03125 9.925781 C 11.050781 9.9375 11.078125 9.945312 11.117188 9.945312 C 11.300781 9.945312 11.695312 9.707031 12.328125 8.640625 C 12.679688 8.03125 12.953125 7.429688 12.953125 7.429688 C 12.953125 7.429688 13.011719 7.320312 13.105469 7.265625 C 13.191406 7.210938 13.191406 7.210938 13.308594 7.210938 L 13.320312 7.210938 C 13.449219 7.210938 14.71875 7.199219 15 7.199219 L 15.03125 7.199219 C 15.300781 7.199219 15.542969 7.203125 15.589844 7.367188 C 15.652344 7.617188 15.390625 8.058594 14.707031 8.980469 C 13.578125 10.488281 13.453125 10.375 14.386719 11.246094 C 15.285156 12.078125 15.46875 12.484375 15.5 12.535156 C 15.871094 13.152344 15.089844 13.199219 15.089844 13.199219 Z M 15.089844 13.199219 "/>
</g>
</svg>
